<?xml version="1.0" standalone="no"?>
<!DOCTYPE svg PUBLIC "-//W3C//DTD SVG 20010904//EN"
 "http://www.w3.org/TR/2001/REC-SVG-20010904/DTD/svg10.dtd">
<svg version="1.0" xmlns="http://www.w3.org/2000/svg"
 width="700.000000pt" height="700.000000pt" viewBox="0 0 700.000000 700.000000"
 preserveAspectRatio="xMidYMid meet">
<metadata>
Created by potrace 1.11, written by Peter Selinger 2001-2013
</metadata>
<g transform="translate(0.000000,700.000000) scale(0.100000,-0.100000)"
fill="#000000" stroke="none">
<path d="M2305 5950 c-16 -4 -127 -33 -245 -65 -118 -32 -227 -60 -243 -63
-32 -5 -43 -18 -29 -35 5 -7 121 -205 257 -442 135 -236 261 -455 280 -485 18
-30 101 -174 185 -320 84 -146 159 -276 168 -290 9 -14 15 -27 15 -30 0 -3 7
-16 17 -30 9 -14 44 -72 77 -130 64 -111 74 -129 147 -255 25 -43 42 -82 38
-86 -4 -3 -88 -27 -187 -53 -99 -26 -227 -60 -285 -76 -111 -31 -638 -172
-827 -221 -62 -16 -118 -31 -125 -34 -7 -3 -96 60 -198 140 -102 80 -231 181
-288 225 l-102 81 -208 -57 c-114 -31 -208 -57 -210 -59 -2 -2 118 -216 189
-335 4 -8 36 -62 69 -120 33 -58 65 -112 70 -120 6 -8 13 -22 17 -30 13 -28
394 -685 402 -693 5 -5 94 15 197 43 104 29 196 53 204 55 8 2 177 47 375 100
468 126 577 155 595 159 8 2 85 23 170 46 85 22 196 52 245 65 173 45 250 66
280 75 17 5 41 12 55 14 14 3 68 17 120 31 52 15 151 41 220 60 69 18 247 65
395 105 149 40 317 85 375 100 58 15 148 39 200 53 52 14 257 69 455 122 198
53 392 105 430 115 39 11 95 26 125 34 480 127 516 141 601 234 58 64 83 109
104 189 53 204 -41 406 -234 501 -72 36 -79 37 -180 37 -91 0 -125 -5 -241
-38 -163 -45 -674 -183 -750 -202 -74 -19 -183 -48 -315 -84 -60 -16 -164 -44
-229 -61 -66 -17 -123 -32 -127 -33 -3 -1 -31 20 -60 47 -71 65 -281 260 -394
366 -129 121 -185 174 -225 210 -19 18 -87 81 -150 140 -63 59 -129 121 -146
136 -17 16 -82 76 -144 134 -62 58 -127 118 -144 134 -17 15 -85 78 -150 140
-65 61 -129 120 -141 131 -11 11 -52 49 -91 85 -38 36 -127 119 -198 185 -71
66 -140 130 -152 143 -13 12 -24 22 -26 21 -2 -1 -16 -4 -33 -9z"/>
<path d="M732 1167 l3 -292 2765 0 2765 0 3 292 2 292 -2770 0 -2770 0 2 -292z"/>
</g>
</svg>
